<svg xmlns="http://www.w3.org/2000/svg" viewBox="0 0 128 128">
  <defs>
    <linearGradient id="bg" x1="0" y1="0" x2="1" y2="1">
      <stop offset="0%" stop-color="#0b1020" />
      <stop offset="100%" stop-color="#1b253a" />
    </linearGradient>
    <linearGradient id="book" x1="0" y1="0" x2="1" y2="1">
      <stop offset="0%" stop-color="#f8fafc" />
      <stop offset="100%" stop-color="#e2e8f0" />
    </linearGradient>
  </defs>
  <rect width="128" height="128" rx="28" fill="url(#bg)" />
  <circle cx="64" cy="40" r="28" fill="#2563eb" opacity="0.14" />
  <circle cx="64" cy="44" r="18" fill="#f8d7b3" />
  <path
    d="M46 44c0-12 8-22 18-22 8 0 16 4 18 12 2 8-2 12-6 12-4 0-6-3-12-3-5 0-6 3-10 3-6 0-8-5-8-12z"
    fill="#1f2937"
  />
  <circle cx="58" cy="46" r="2.5" fill="#1f2937" />
  <circle cx="70" cy="46" r="2.5" fill="#1f2937" />
  <path d="M58 52c2.5 2.5 9.5 2.5 12 0" stroke="#1f2937" stroke-width="2.5" stroke-linecap="round" />
  <path d="M46 64c6 6 30 6 36 0" stroke="#f59e0b" stroke-width="4" stroke-linecap="round" />
  <rect x="18" y="72" width="44" height="30" rx="10" fill="url(#book)" />
  <rect x="66" y="72" width="44" height="30" rx="10" fill="url(#book)" />
  <rect x="62" y="72" width="4" height="30" rx="2" fill="#cbd5e1" />
  <path d="M26 82h28" stroke="#94a3b8" stroke-width="3" stroke-linecap="round" />
  <path d="M26 90h24" stroke="#94a3b8" stroke-width="3" stroke-linecap="round" />
  <path d="M74 82h28" stroke="#94a3b8" stroke-width="3" stroke-linecap="round" />
  <path d="M78 90h24" stroke="#94a3b8" stroke-width="3" stroke-linecap="round" />
  <circle cx="44" cy="72" r="4" fill="#f8d7b3" />
  <circle cx="84" cy="72" r="4" fill="#f8d7b3" />
</svg>
